<svg width="78" height="32" viewBox="0 0 78 32" fill="none" xmlns="http://www.w3.org/2000/svg">
<path d="M23.8491 29.9206C23.7615 29.7898 23.7075 29.5466 23.6859 29.1909C23.6642 28.8353 23.6534 28.4472 23.6534 28.0256C23.6534 27.5035 23.6502 27.0235 23.6426 26.5878C23.635 26.1522 23.6318 25.7317 23.6318 25.3252V18.2046C23.6318 17.9722 23.6394 17.7441 23.6534 17.5182C23.6675 17.2933 23.6891 17.0901 23.7183 16.9085C23.7475 16.7269 23.7907 16.5853 23.8491 16.4837C24.0091 16.1929 24.2555 15.9723 24.5896 15.8199C24.9236 15.6675 25.2641 15.5691 25.6133 15.5259V15.3086H19.0591V15.5259C19.3932 15.541 19.7261 15.5951 20.0612 15.6891C20.3953 15.7842 20.6925 16.0264 20.9541 16.4188C21.0698 16.608 21.139 16.8512 21.1606 17.1485C21.1822 17.4457 21.2006 17.7333 21.2147 18.009C21.2287 18.4878 21.2363 18.9159 21.2363 19.2943V22.8H12.6347V20.6001C12.6347 20.0629 12.6379 19.5007 12.6455 18.9127C12.6531 18.3246 12.6639 17.7765 12.6779 17.2685C12.692 16.9344 12.7655 16.6588 12.8952 16.4415C13.026 16.2242 13.186 16.0534 13.3741 15.9302C13.5622 15.8069 13.773 15.7161 14.0054 15.6578C14.2378 15.5994 14.4551 15.5561 14.6583 15.527V15.3097H8.1712V15.527C8.54847 15.5702 8.88575 15.6469 9.18411 15.7551C9.48139 15.8642 9.73218 16.0415 9.93541 16.2891C10.0219 16.3907 10.0878 16.5323 10.1311 16.7139C10.1743 16.8955 10.2078 17.0987 10.2294 17.3236C10.2511 17.5484 10.2619 17.7917 10.2619 18.0533V24.3469C10.2619 24.7826 10.2586 25.2074 10.2511 25.6203C10.2435 26.0344 10.2359 26.4149 10.2294 26.7641C10.2219 27.1121 10.2186 27.3889 10.2186 27.591C10.2186 27.8234 10.2111 28.0667 10.197 28.3207C10.1819 28.5747 10.1646 28.8104 10.143 29.0288C10.1213 29.2461 10.0922 29.4396 10.0565 29.606C10.0197 29.7736 9.97216 29.8925 9.91487 29.9649C9.74083 30.1682 9.48679 30.339 9.15276 30.4762C8.81873 30.6146 8.47064 30.7119 8.10742 30.7703V30.9876H14.5308V30.7703C14.2259 30.7411 13.9135 30.6611 13.5946 30.5303C13.2746 30.3995 13.0282 30.2114 12.8541 29.9638C12.7374 29.8039 12.6725 29.5282 12.6585 29.1369C12.6433 28.7445 12.6369 28.3391 12.6369 27.9175V23.2356H21.2384V26.6765C21.2384 27.1846 21.2309 27.6786 21.2168 28.1575C21.2168 28.3315 21.2136 28.5131 21.206 28.7023C21.1985 28.8915 21.1876 29.0731 21.1736 29.2471C21.1585 29.4212 21.1412 29.5736 21.1195 29.7044C21.0979 29.8352 21.072 29.9217 21.0428 29.966C20.926 30.1552 20.6871 30.3249 20.3239 30.4773C19.9607 30.6297 19.511 30.7281 18.9737 30.7714V30.9886H25.6587V30.7714C25.2814 30.7281 24.9323 30.6481 24.6134 30.5314C24.2934 30.4157 24.0393 30.2125 23.8512 29.9217L23.8491 29.9206Z" fill="black"/>
<path d="M70.42 26.7626C70.0568 27.3874 69.7044 27.9203 69.3639 28.3636C69.0223 28.8068 68.6699 29.1797 68.3077 29.4846C67.9445 29.7894 67.5672 30.0251 67.1759 30.1926C66.7835 30.3602 66.3554 30.4726 65.8906 30.5299C65.469 30.5883 65.0669 30.625 64.682 30.6391C64.2972 30.6542 63.9815 30.6607 63.7351 30.6607C63.1546 30.6607 62.6173 30.6175 62.1233 30.5299C61.6293 30.4423 61.3179 30.2975 61.1871 30.0943C61.0563 29.891 60.9731 29.5829 60.9363 29.1689C60.8996 28.7549 60.8747 28.316 60.8596 27.8512C60.8596 27.7063 60.8563 27.5279 60.8488 27.3171C60.8412 27.1063 60.838 26.8858 60.838 26.6534V24.0406C60.838 23.6482 60.852 23.3509 60.8812 23.1477H61.8833C62.0282 23.1477 62.173 23.1509 62.3189 23.1585C62.4638 23.1661 62.6454 23.1769 62.8638 23.1909C63.2994 23.2201 63.6799 23.3001 64.0075 23.4309C64.3339 23.5617 64.6129 23.7282 64.8463 23.9314C65.108 24.179 65.3577 24.5487 65.5977 25.0416C65.8376 25.5356 66.0149 26.0145 66.1317 26.4794H66.3933V19.6204H66.1317C66.0452 20.0268 65.9468 20.3933 65.8376 20.7197C65.7285 21.0462 65.5836 21.3338 65.402 21.5802C65.2204 21.8278 64.9847 22.0375 64.6939 22.2115C64.4031 22.3856 64.041 22.5239 63.6053 22.6256C63.4162 22.6688 63.1805 22.7012 62.8973 22.7239C62.6141 22.7456 62.3308 22.7639 62.0476 22.778C61.7644 22.7931 61.5136 22.7996 61.2963 22.7996H60.8607V22.5596C60.8607 22.4288 60.8574 22.244 60.8499 22.004C60.8423 21.764 60.839 21.4559 60.839 21.0786V19.6852C60.839 18.7274 60.8499 17.8853 60.8715 17.1589C60.8931 16.4335 60.918 15.9536 60.9471 15.7212C61.092 15.692 61.3287 15.6671 61.6552 15.6455C61.9817 15.6239 62.2973 15.6131 62.6022 15.6131C63.5599 15.6131 64.3729 15.6563 65.0409 15.7439C65.7079 15.8314 66.1663 15.933 66.4127 16.0487C67.4429 16.5568 68.5466 17.5437 69.7228 19.0107L69.9401 18.9015L68.4591 15.3082H51.8299C51.7867 15.425 51.6083 15.8487 51.2959 16.5816C50.9835 17.3146 50.5846 18.2334 50.0981 19.3361C49.6117 20.4398 49.0636 21.6732 48.4539 23.0374C47.8442 24.4027 47.2194 25.7745 46.5816 27.1528L41.3776 15.3071H36.739V15.5244C36.9131 15.5536 37.1239 15.6001 37.3703 15.666C37.6168 15.7309 37.8492 15.8368 38.0676 15.9817C38.2859 16.1265 38.474 16.3265 38.634 16.5806C38.794 16.8346 38.8805 17.1654 38.8956 17.5718C38.9054 17.841 38.9108 18.081 38.914 18.2972C38.7162 18.0172 38.5011 17.7491 38.2654 17.4962C37.5833 16.7632 36.752 16.1784 35.7726 15.7428C34.7921 15.3071 33.6852 15.0898 32.4517 15.0898C31.3199 15.0898 30.2411 15.2747 29.2184 15.6455C28.1947 16.0152 27.3018 16.546 26.5397 17.2346C25.7776 17.9243 25.1711 18.7664 24.7214 19.7609C24.2717 20.7554 24.0469 21.8764 24.0469 23.125C24.0469 24.3011 24.2609 25.3789 24.689 26.3583C25.1171 27.3377 25.7019 28.1798 26.4424 28.8846C27.1829 29.5894 28.0466 30.1332 29.0336 30.518C30.0205 30.9029 31.0659 31.0953 32.1696 31.0953C33.2733 31.0953 34.3435 30.8996 35.338 30.5072C36.3326 30.1148 37.2038 29.557 37.9508 28.8306C38.6989 28.1052 39.2902 27.248 39.7258 26.261C40.1615 25.274 40.3788 24.1995 40.3788 23.0385C40.3788 21.9932 40.1972 20.9911 39.8339 20.0333C39.6891 19.6517 39.5183 19.2896 39.3237 18.9436C39.3291 18.2853 39.3324 17.5491 39.3324 16.7232C39.4048 16.8832 39.5388 17.1881 39.7356 17.6378C39.9312 18.0875 40.182 18.6474 40.4869 19.3144C40.7917 19.9825 41.1322 20.7446 41.5106 21.6008C41.8879 22.458 42.2943 23.3758 42.73 24.3552C43.1656 25.3346 43.6121 26.355 44.0693 27.4144C44.5266 28.4738 44.9871 29.5408 45.452 30.6153H45.5828C45.6119 30.5277 45.6844 30.3505 45.8011 30.0813C45.9168 29.8132 46.0411 29.5148 46.1719 29.1884C46.3027 28.8619 46.4335 28.543 46.5643 28.2306C46.6951 27.9182 46.7967 27.6901 46.8692 27.5442C47.348 26.4696 47.7869 25.4859 48.1869 24.593C48.5858 23.7001 48.9814 22.8256 49.3739 21.9694C49.7663 21.1132 50.1608 20.2344 50.5608 19.335C50.9597 18.4345 51.3997 17.4475 51.8786 16.373V25.2362C51.8786 26.1075 51.8634 27.022 51.8353 27.9798C51.8202 28.2706 51.7921 28.5571 51.7488 28.8403C51.7056 29.1235 51.6397 29.3592 51.5532 29.5484C51.4083 29.8532 51.1251 30.1224 50.7035 30.3537C50.2819 30.5861 49.7598 30.7169 49.136 30.7461V30.9861H69.5758L70.6643 26.8264L70.4254 26.7615L70.42 26.7626ZM37.3401 25.8048C37.1141 26.7193 36.7768 27.5431 36.3271 28.276C35.8774 29.0089 35.3142 29.6078 34.6397 30.0726C33.9651 30.5375 33.1695 30.7699 32.255 30.7699C31.3404 30.7699 30.5383 30.5591 29.8487 30.1386C29.159 29.7181 28.586 29.1581 28.1288 28.4619C27.6715 27.7647 27.3267 26.9593 27.0942 26.0448C26.8618 25.1303 26.7462 24.1801 26.7462 23.192C26.7462 22.204 26.851 21.3154 27.0618 20.3933C27.2715 19.4712 27.5991 18.6474 28.0412 17.9221C28.4833 17.1967 29.0498 16.6043 29.7395 16.1471C30.4292 15.6898 31.2453 15.4606 32.189 15.4606C33.1328 15.4606 33.9241 15.6887 34.6062 16.1471C35.2883 16.6043 35.858 17.2 36.3153 17.9329C36.7725 18.6658 37.113 19.4831 37.339 20.3825C37.5638 21.2829 37.6762 22.1759 37.6762 23.0612C37.6762 23.9466 37.5638 24.8903 37.339 25.8048H37.3401ZM58.4641 23.0828V24.3454C58.4641 24.7811 58.4608 25.2059 58.4533 25.6189C58.4457 26.0329 58.4381 26.4134 58.4316 26.7626C58.4241 27.1107 58.4208 27.3874 58.4208 27.5896C58.4208 27.822 58.4133 28.0576 58.3992 28.2976C58.3841 28.5376 58.3592 28.7657 58.3235 28.9841C58.2868 29.2013 58.2468 29.3948 58.2035 29.5613C58.1603 29.7289 58.1019 29.8554 58.0295 29.9429C57.8263 30.1753 57.5679 30.3569 57.2566 30.4877C56.9712 30.6067 56.6631 30.6921 56.3356 30.7504C56.0956 30.7245 55.8783 30.6769 55.6859 30.6067C55.4243 30.5126 55.207 30.4034 55.0329 30.2802C54.8589 30.157 54.7249 30.0402 54.6297 29.9321C54.5357 29.8229 54.4805 29.7548 54.4665 29.7256C54.3789 29.5656 54.3173 29.3451 54.2816 29.0619C54.2449 28.7787 54.2276 28.4998 54.2276 28.223C54.2125 27.3669 54.206 26.554 54.206 25.7843V21.4505C54.206 20.7976 54.2135 20.1219 54.2276 19.4258C54.2416 18.9177 54.2633 18.4021 54.2924 17.8799C54.3216 17.3578 54.38 16.973 54.4665 16.7254C54.5822 16.4065 54.7962 16.1309 55.1086 15.8984C55.4167 15.6693 55.8642 15.5471 56.4491 15.5298C56.8361 15.5871 57.1528 15.6487 57.3982 15.7136C57.6447 15.7784 57.8771 15.9276 58.0954 16.16C58.183 16.2476 58.2511 16.3881 58.3019 16.5849C58.3527 16.7805 58.3884 17.0021 58.4111 17.2486C58.4327 17.4962 58.4468 17.7567 58.4543 18.0324C58.4619 18.308 58.4651 18.5772 58.4651 18.8377V23.0839L58.4641 23.0828Z" fill="black"/>
<path fill-rule="evenodd" clip-rule="evenodd" d="M14.2529 12.8275H13.3081V9.08179L12.4897 11.5454H11.9665L11.1655 9.12394V12.8275H10.2207V6.82031H11.0725L12.2368 9.97578L13.3924 6.82031H14.2529V12.8275Z" fill="black"/>
<path fill-rule="evenodd" clip-rule="evenodd" d="M17.9607 9.82506C17.9607 8.71702 17.8937 8.05328 17.7585 7.83384C17.6634 7.68141 17.511 7.60574 17.3034 7.60574C17.0959 7.60574 16.9521 7.68141 16.8559 7.83384C16.7154 8.05869 16.6451 8.72243 16.6451 9.82506C16.6451 10.9277 16.7154 11.5914 16.8559 11.8163C16.951 11.9687 17.1002 12.0444 17.3034 12.0444C17.5067 12.0444 17.6634 11.9687 17.7585 11.8163C17.8937 11.5968 17.9607 10.9331 17.9607 9.82506ZM18.9055 9.82506C18.9055 10.5731 18.8882 11.0855 18.8547 11.3601C18.7985 11.8217 18.6688 12.1644 18.4666 12.3892C18.1682 12.7265 17.7802 12.8951 17.3024 12.8951C16.8246 12.8951 16.4365 12.7265 16.1381 12.3892C15.936 12.1644 15.8062 11.8217 15.75 11.3601C15.7165 11.0844 15.6992 10.5731 15.6992 9.82506C15.6992 9.077 15.7165 8.56568 15.75 8.29002C15.8062 7.82843 15.936 7.48575 16.1381 7.2609C16.4365 6.92254 16.8245 6.75391 17.3034 6.75391C17.7823 6.75391 18.1693 6.92254 18.4677 7.25982C18.6698 7.48467 18.7996 7.82843 18.8558 8.28894C18.8893 8.5646 18.9066 9.077 18.9066 9.82397L18.9055 9.82506Z" fill="black"/>
<path fill-rule="evenodd" clip-rule="evenodd" d="M23.5336 12.8275H22.6979L21.2807 9.25907V12.8275H20.3359V6.82031H21.1791L22.5888 10.3898V6.82031H23.5336V12.8275Z" fill="black"/>
<path fill-rule="evenodd" clip-rule="evenodd" d="M27.6983 7.67215H26.6854V12.8275H25.7406V7.67215H24.7363V6.82031H27.6983V7.67215Z" fill="black"/>
<path fill-rule="evenodd" clip-rule="evenodd" d="M31.4059 12.8275H28.8828V6.82031H31.4059V7.67323H29.8276V9.3769H31.1864V10.2287H29.8276V11.9756H31.4059V12.8275Z" fill="black"/>
<path fill-rule="evenodd" clip-rule="evenodd" d="M38.3491 11.2327C38.3318 11.8014 38.1664 12.2283 37.8518 12.5148C37.5762 12.7678 37.2303 12.8943 36.8141 12.8943C36.3363 12.8943 35.9482 12.7256 35.6498 12.3883C35.4477 12.1635 35.318 11.8197 35.2617 11.3592C35.2282 11.089 35.2109 10.5798 35.2109 9.83175C35.2109 9.08369 35.2282 8.57237 35.2617 8.29564C35.318 7.82864 35.4477 7.48272 35.6498 7.25787C35.9482 6.92059 36.3363 6.75195 36.8141 6.75195C37.2357 6.75195 37.5848 6.88167 37.8605 7.14004C38.1643 7.4265 38.3242 7.84918 38.3415 8.4059H37.3967C37.3859 8.15294 37.3351 7.9562 37.2454 7.81567C37.1557 7.67514 37.0119 7.60487 36.8152 7.60487C36.6184 7.60487 36.4638 7.68054 36.3676 7.83296C36.2271 8.05781 36.1568 8.72155 36.1568 9.82418C36.1568 10.9268 36.2271 11.5906 36.3676 11.8154C36.4627 11.9678 36.6119 12.0435 36.8152 12.0435C37.1859 12.0435 37.3827 11.7732 37.4054 11.2338H38.3502L38.3491 11.2327Z" fill="black"/>
<path fill-rule="evenodd" clip-rule="evenodd" d="M41.6525 10.7855L41.1379 8.27103L40.6234 10.7855H41.6525ZM43.061 12.8275H42.0741L41.8298 11.6384H40.4374L40.2007 12.8275H39.2051L40.6817 6.82031H41.6017L43.061 12.8275Z" fill="black"/>
<path fill-rule="evenodd" clip-rule="evenodd" d="M46.1833 8.59209C46.1833 8.31643 46.1552 8.11104 46.099 7.97591C46.0092 7.77376 45.8428 7.67215 45.6006 7.67215H45.0179V9.51203H45.6006C45.8428 9.51203 46.0081 9.41041 46.099 9.20826C46.1552 9.07314 46.1833 8.86775 46.1833 8.59209ZM47.3227 12.8275H46.3357L45.5509 10.3639H45.019V12.8275H44.0742V6.82031H45.593C46.1389 6.82031 46.5314 6.95976 46.7703 7.23758C47.0092 7.51648 47.1292 7.96726 47.1292 8.59209C47.1292 9.38555 46.8957 9.90876 46.4287 10.1617L47.3227 12.8275Z" fill="black"/>
<path fill-rule="evenodd" clip-rule="evenodd" d="M51.0172 12.8275H48.4941V6.82031H49.44V11.9756H51.0172V12.8275Z" fill="black"/>
<path fill-rule="evenodd" clip-rule="evenodd" d="M53.9529 9.82397C53.9529 8.71594 53.8859 8.0522 53.7507 7.83275C53.6556 7.68033 53.5032 7.60466 53.2956 7.60466C53.0881 7.60466 52.9443 7.68033 52.8481 7.83275C52.7076 8.0576 52.6373 8.72134 52.6373 9.82397C52.6373 10.9266 52.7076 11.5903 52.8481 11.8152C52.9432 11.9676 53.0924 12.0433 53.2956 12.0433C53.4989 12.0433 53.6556 11.9676 53.7507 11.8152C53.8859 11.5957 53.9529 10.932 53.9529 9.82397ZM54.8977 9.82397C54.8977 10.572 54.8804 11.0844 54.8469 11.359C54.7907 11.8206 54.6609 12.1633 54.4588 12.3881C54.1604 12.7254 53.7724 12.894 53.2945 12.894C52.8167 12.894 52.4287 12.7254 52.1303 12.3881C51.9281 12.1633 51.7984 11.8206 51.7422 11.359C51.7087 11.0834 51.6914 10.572 51.6914 9.82397C51.6914 9.07592 51.7087 8.5646 51.7422 8.28894C51.7984 7.82735 51.9281 7.48467 52.1303 7.25982C52.4287 6.92254 52.8167 6.75391 53.2945 6.75391C53.7724 6.75391 54.1604 6.92254 54.4588 7.25982C54.6609 7.48467 54.7907 7.82843 54.8469 8.28894C54.8804 8.5646 54.8977 9.077 54.8977 9.82397Z" fill="black"/>
<path fill-rule="evenodd" clip-rule="evenodd" d="M60.8298 7.12089C60.7779 7.12089 60.7433 7.16521 60.739 7.17062L56.6052 12.3941C56.5598 12.4557 56.5566 12.4892 56.562 12.4989C56.5685 12.5119 56.6052 12.5227 56.6398 12.5227H67.8888C67.918 12.5227 67.9353 12.5184 67.9461 12.5162C67.9353 12.5054 67.9137 12.4795 67.8856 12.4589L60.9174 7.1544C60.8871 7.1317 60.8568 7.11981 60.8309 7.11981L60.8298 7.12089ZM56.5295 12.8546C56.4193 12.8546 56.2247 12.834 56.1588 12.6957C56.1015 12.5767 56.1555 12.4168 56.3252 12.207L60.4741 6.95333C60.4741 6.95333 60.5974 6.74902 60.8136 6.74902C60.9011 6.74902 60.9898 6.78362 61.0763 6.85172L68.1666 12.2341C68.2261 12.2795 68.5158 12.5173 68.4531 12.6989C68.4174 12.8016 68.292 12.8513 68.0682 12.8513H56.5912C56.5793 12.8535 56.5598 12.8535 56.5306 12.8535L56.5295 12.8546Z" fill="black"/>
<path fill-rule="evenodd" clip-rule="evenodd" d="M58.5062 12.384C58.4716 12.384 58.4446 12.3711 58.4316 12.3462C58.41 12.3094 58.4208 12.2554 58.4641 12.1797C58.4997 12.1159 58.5851 11.9711 58.6727 11.8219C58.7581 11.676 58.8467 11.5268 58.89 11.449C59.0067 11.236 59.2651 10.7366 59.2737 10.6382C59.2759 10.6133 59.2802 10.5885 59.2845 10.5647C59.2899 10.5301 59.2986 10.4825 59.2889 10.4717C59.2878 10.4696 59.2813 10.4696 59.2802 10.4696C59.2727 10.4696 59.2575 10.4717 59.2305 10.4825C59.2024 10.4933 59.1689 10.5063 59.1332 10.5193C58.9927 10.5712 58.7992 10.6425 58.6522 10.7333L58.6035 10.7625C58.4597 10.8468 58.2814 10.9517 58.21 10.9765C58.2025 10.9798 58.1916 10.982 58.1808 10.982C58.1322 10.982 58.0835 10.9387 58.0727 10.8847C58.0619 10.8349 58.0879 10.7906 58.1408 10.769C58.1949 10.7355 59.557 9.90094 59.8315 9.81987C59.8575 9.8123 59.8823 9.80906 59.904 9.80906C59.9569 9.80906 59.985 9.83176 60.0002 9.85014C60.0272 9.88581 60.0326 9.93986 60.0142 10.0123C59.9753 10.168 59.7656 10.5679 59.6888 10.689L59.6802 10.7041C59.664 10.7312 59.6218 10.8014 59.6272 10.8198C59.6272 10.8198 59.6315 10.8198 59.637 10.8198C59.6921 10.8036 60.0358 10.4771 60.2877 10.2382C60.4866 10.049 60.6736 9.87176 60.7482 9.8123C60.7634 9.80041 60.7796 9.78744 60.7947 9.77447C60.8596 9.72258 60.9201 9.67285 60.9774 9.67285C61.065 9.67285 61.0855 9.7842 61.092 9.82095C61.1028 9.87392 60.9752 10.129 60.9201 10.2361C60.9136 10.2458 60.9082 10.2555 60.9061 10.262C60.9147 10.262 60.9277 10.2588 60.9471 10.2512C61.0077 10.2274 61.0498 10.1896 61.1028 10.142C61.1579 10.0923 61.2271 10.0296 61.3417 9.96256C61.3774 9.94094 61.4174 9.92905 61.4574 9.92905C61.5114 9.92905 61.5579 9.95175 61.5784 9.98743C61.5947 10.0166 61.5936 10.0512 61.5741 10.0847C61.5622 10.1053 61.5363 10.1582 61.5017 10.2296C61.3925 10.4501 61.2109 10.8187 61.079 11.0155C61.0617 11.0468 61.0433 11.0749 61.0282 11.0976C61.0131 11.1214 60.9936 11.1506 60.9958 11.1582C60.9958 11.1582 60.9958 11.1592 60.999 11.1614C61.0271 11.1495 61.0952 11.1236 61.1601 11.1236C61.199 11.1236 61.226 11.1333 61.2466 11.1463C61.319 10.9809 61.6693 10.2988 62.7167 9.86419C62.8497 9.81014 63.2021 9.68366 63.6237 9.68366C63.7891 9.68366 63.9491 9.70312 64.1004 9.74096C64.1221 9.74636 64.1729 9.75933 64.1675 9.79717C64.161 9.8523 64.0183 9.85446 64.0021 9.85446C63.9026 9.85446 63.3729 9.93229 62.8054 10.1777C62.6454 10.2458 61.9233 10.6922 61.5676 11.4933C61.5309 11.583 61.5255 11.6522 61.5536 11.6933C61.5774 11.7289 61.6228 11.7365 61.6563 11.7365C61.6811 11.7365 61.7082 11.7322 61.7363 11.7246C61.9157 11.6597 62.3816 11.4727 62.7784 11.1473C62.8259 11.1095 62.8648 11.0901 62.8951 11.0901C62.9167 11.0901 62.9351 11.1009 62.9438 11.1182C62.9589 11.1484 62.9448 11.196 62.9081 11.2446C62.8194 11.3506 62.4378 11.7343 61.8584 12.1019C61.7752 12.1538 61.5125 12.2857 61.2941 12.2857C61.1136 12.2857 61.0023 12.1959 60.972 12.0262C60.9342 11.8251 61.025 11.5506 61.0704 11.4306C60.9979 11.4662 60.8628 11.5473 60.7017 11.7073C60.6142 11.7992 60.4996 11.9041 60.3991 11.9959L60.3601 12.0316C60.3385 12.05 60.2953 12.064 60.2575 12.064C60.2196 12.064 60.1893 12.05 60.1731 12.0251C60.1515 11.9938 60.1537 11.9473 60.1785 11.8868C60.2304 11.7538 60.4542 11.3506 60.6423 11.0706C60.6888 11.0014 60.6942 10.9549 60.6877 10.942C60.6877 10.942 60.6866 10.942 60.6855 10.942C60.6693 10.942 60.6434 10.9549 60.6088 10.9884C60.4877 11.1203 59.9288 11.7441 59.8715 11.8122C59.8369 11.8554 59.7559 11.8911 59.6921 11.8911C59.6456 11.8911 59.6229 11.8727 59.6121 11.8565C59.5948 11.8327 59.5948 11.7992 59.6099 11.7581C59.678 11.6025 60.1364 10.943 60.1926 10.8868C60.2088 10.863 60.2164 10.8295 60.2131 10.8198C60.2131 10.823 60.1872 10.8274 60.1158 10.8987L60.0488 10.9668C59.851 11.1679 59.4413 11.5873 59.2154 11.7733C59.1224 11.8608 58.7203 12.2457 58.6532 12.3213C58.6165 12.3581 58.5581 12.3829 58.5105 12.3829L58.5062 12.384Z" fill="black"/>
</svg>
